<?xml version="1.0" encoding="UTF-8" standalone="no"?><svg xmlns="http://www.w3.org/2000/svg" xmlns:xlink="http://www.w3.org/1999/xlink" contentScriptType="application/ecmascript" contentStyleType="text/css" height="507px" preserveAspectRatio="none" style="width:737px;height:507px;" version="1.1" viewBox="0 0 737 507" width="737px" zoomAndPan="magnify"><defs><filter height="300%" id="frt8exrf10mrv" width="300%" x="-1" y="-1"><feGaussianBlur result="blurOut" stdDeviation="2.0"/><feColorMatrix in="blurOut" result="blurOut2" type="matrix" values="0 0 0 0 0 0 0 0 0 0 0 0 0 0 0 0 0 0 .4 0"/><feOffset dx="4.0" dy="4.0" in="blurOut2" result="blurOut3"/><feBlend in="SourceGraphic" in2="blurOut3" mode="normal"/></filter></defs><g><!--cluster OSGi--><polygon fill="#FFFFFF" filter="url(#frt8exrf10mrv)" points="14,83,131,83,138,105.2969,545,105.2969,545,364,14,364,14,83" style="stroke: #000000; stroke-width: 1.5;"/><line style="stroke: #000000; stroke-width: 1.5;" x1="14" x2="138" y1="105.2969" y2="105.2969"/><text fill="#000000" font-family="sans-serif" font-size="14" font-weight="bold" lengthAdjust="spacingAndGlyphs" textLength="111" x="18" y="97.9951">OSGI Services</text><!--cluster SimpleBundle--><polygon fill="#FFFFFF" filter="url(#frt8exrf10mrv)" points="559,97,676,97,683,119.2969,715,119.2969,715,358,559,358,559,97" style="stroke: #000000; stroke-width: 1.5;"/><line style="stroke: #000000; stroke-width: 1.5;" x1="559" x2="683" y1="119.2969" y2="119.2969"/><text fill="#000000" font-family="sans-serif" font-size="14" font-weight="bold" lengthAdjust="spacingAndGlyphs" textLength="111" x="563" y="111.9951">Simple Bundle</text><!--cluster GoGo Shell--><polygon fill="#FFFFFF" filter="url(#frt8exrf10mrv)" points="59,395,152,395,159,417.2969,189,417.2969,189,495,59,495,59,395" style="stroke: #000000; stroke-width: 1.5;"/><line style="stroke: #000000; stroke-width: 1.5;" x1="59" x2="159" y1="417.2969" y2="417.2969"/><text fill="#000000" font-family="sans-serif" font-size="14" font-weight="bold" lengthAdjust="spacingAndGlyphs" textLength="87" x="63" y="409.9951">GoGo Shell</text><!--entity ConfigurationAdminImpl--><rect fill="#FEFECE" filter="url(#frt8exrf10mrv)" height="46.2969" style="stroke: #A80036; stroke-width: 1.5;" width="203" x="22.5" y="129"/><rect fill="#FEFECE" height="10" style="stroke: #A80036; stroke-width: 1.5;" width="15" x="205.5" y="134"/><rect fill="#FEFECE" height="2" style="stroke: #A80036; stroke-width: 1.5;" width="4" x="203.5" y="136"/><rect fill="#FEFECE" height="2" style="stroke: #A80036; stroke-width: 1.5;" width="4" x="203.5" y="140"/><text fill="#000000" font-family="sans-serif" font-size="14" lengthAdjust="spacingAndGlyphs" textLength="163" x="37.5" y="161.9951">ConfigurationAdminImpl</text><!--entity ConfigurationAdmin--><ellipse cx="124" cy="327" fill="#FEFECE" filter="url(#frt8exrf10mrv)" rx="8" ry="8" style="stroke: #A80036; stroke-width: 2.0;"/><text fill="#000000" font-family="sans-serif" font-size="14" lengthAdjust="spacingAndGlyphs" textLength="135" x="56.5" y="356.9951">ConfigurationAdmin</text><!--entity LogServiceImpl--><rect fill="#FEFECE" filter="url(#frt8exrf10mrv)" height="46.2969" style="stroke: #A80036; stroke-width: 1.5;" width="143" x="393.5" y="129"/><rect fill="#FEFECE" height="10" style="stroke: #A80036; stroke-width: 1.5;" width="15" x="516.5" y="134"/><rect fill="#FEFECE" height="2" style="stroke: #A80036; stroke-width: 1.5;" width="4" x="514.5" y="136"/><rect fill="#FEFECE" height="2" style="stroke: #A80036; stroke-width: 1.5;" width="4" x="514.5" y="140"/><text fill="#000000" font-family="sans-serif" font-size="14" lengthAdjust="spacingAndGlyphs" textLength="103" x="408.5" y="161.9951">LogServiceImpl</text><!--entity ConfigurationListener--><ellipse cx="349" cy="152" fill="#FEFECE" filter="url(#frt8exrf10mrv)" rx="8" ry="8" style="stroke: #A80036; stroke-width: 2.0;"/><text fill="#000000" font-family="sans-serif" font-size="14" lengthAdjust="spacingAndGlyphs" textLength="147" x="275.5" y="181.9951">ConfigurationListener</text><!--entity LogService--><ellipse cx="390" cy="327" fill="#FEFECE" filter="url(#frt8exrf10mrv)" rx="8" ry="8" style="stroke: #A80036; stroke-width: 2.0;"/><text fill="#000000" font-family="sans-serif" font-size="14" lengthAdjust="spacingAndGlyphs" textLength="75" x="352.5" y="356.9951">LogService</text><!--entity HelloWorldApp--><rect fill="#FEFECE" filter="url(#frt8exrf10mrv)" height="46.2969" style="stroke: #A80036; stroke-width: 1.5;" width="140" x="567" y="304"/><rect fill="#FEFECE" height="10" style="stroke: #A80036; stroke-width: 1.5;" width="15" x="687" y="309"/><rect fill="#FEFECE" height="2" style="stroke: #A80036; stroke-width: 1.5;" width="4" x="685" y="311"/><rect fill="#FEFECE" height="2" style="stroke: #A80036; stroke-width: 1.5;" width="4" x="685" y="315"/><text fill="#000000" font-family="sans-serif" font-size="14" lengthAdjust="spacingAndGlyphs" textLength="100" x="582" y="336.9951">HelloWorldApp</text><!--entity ManagedService--><ellipse cx="581" cy="152" fill="#FEFECE" filter="url(#frt8exrf10mrv)" rx="8" ry="8" style="stroke: #A80036; stroke-width: 2.0;"/><text fill="#000000" font-family="sans-serif" font-size="14" lengthAdjust="spacingAndGlyphs" textLength="114" x="524" y="181.9951">ManagedService</text><!--entity GoGoShell--><rect fill="#FEFECE" filter="url(#frt8exrf10mrv)" height="46.2969" style="stroke: #A80036; stroke-width: 1.5;" width="113" x="67.5" y="441"/><rect fill="#FEFECE" height="10" style="stroke: #A80036; stroke-width: 1.5;" width="15" x="160.5" y="446"/><rect fill="#FEFECE" height="2" style="stroke: #A80036; stroke-width: 1.5;" width="4" x="158.5" y="448"/><rect fill="#FEFECE" height="2" style="stroke: #A80036; stroke-width: 1.5;" width="4" x="158.5" y="452"/><text fill="#000000" font-family="sans-serif" font-size="14" lengthAdjust="spacingAndGlyphs" textLength="73" x="82.5" y="473.9951">GoGoShell</text><!--link ConfigurationAdminImpl to ConfigurationAdmin--><path d="M124,175.2386 C124,214.2883 124,291.3943 124,317.8434 " fill="none" id="ConfigurationAdminImpl-ConfigurationAdmin" style="stroke: #A80036; stroke-width: 1.0;"/><!--link ConfigurationListener to LogServiceImpl--><path d="M358.0625,152 C369.7588,152 381.4551,152 393.1514,152 " fill="none" id="ConfigurationListener-LogServiceImpl" style="stroke: #A80036; stroke-width: 1.0;"/><!--link LogServiceImpl to LogService--><path d="M455.0406,175.2386 C438.305,214.2883 405.2596,291.3943 393.9243,317.8434 " fill="none" id="LogServiceImpl-LogService" style="stroke: #A80036; stroke-width: 1.0;"/><!--link ConfigurationAdminImpl to ConfigurationListener--><path d="M225.6386,152 C268.1532,152 312.7563,152 334.8557,152 " fill="none" id="ConfigurationAdminImpl-ConfigurationListener" style="stroke: #A80036; stroke-width: 1.0;"/><polygon fill="#A80036" points="339.9744,152,330.9744,148,334.9744,152,330.9744,156,339.9744,152" style="stroke: #A80036; stroke-width: 1.0;"/><text fill="#000000" font-family="sans-serif" font-size="13" lengthAdjust="spacingAndGlyphs" textLength="65" x="243.75" y="145.0669">sends info</text><polygon fill="#000000" points="311.75,139.0664,317.75,142.0664,311.75,145.0664,311.75,139.0664" style="stroke: #000000; stroke-width: 1.0;"/><!--link LogService to HelloWorldApp--><path d="M404.3449,327 C435.3396,327 510.3222,327 566.8475,327 " fill="none" id="LogService-HelloWorldApp" style="stroke: #A80036; stroke-width: 1.0;"/><polygon fill="#A80036" points="399.0838,327,408.0838,331,404.0838,327,408.0838,323,399.0838,327" style="stroke: #A80036; stroke-width: 1.0;"/><text fill="#000000" font-family="sans-serif" font-size="13" lengthAdjust="spacingAndGlyphs" textLength="131" x="417.5" y="343.0669">sends log messages</text><!--link ManagedService to HelloWorldApp--><path d="M584.0108,161.4088 C592.5529,188.1028 617.1262,264.8944 629.5781,303.8065 " fill="none" id="ManagedService-HelloWorldApp" style="stroke: #A80036; stroke-width: 1.0;"/><!--link ConfigurationAdmin to GoGoShell--><path d="M124,341.6622 C124,365.4375 124,412.5871 124,440.9039 " fill="none" id="ConfigurationAdmin-GoGoShell" style="stroke: #A80036; stroke-width: 1.0;"/><polygon fill="#A80036" points="124,336.4166,120,345.4166,124,341.4166,128,345.4166,124,336.4166" style="stroke: #A80036; stroke-width: 1.0;"/><!--link ConfigurationAdminImpl to ManagedService--><path d="M180.075,128.8385 C219.4222,113.513 273.6182,94.2387 323,83 C372.8367,71.6577 511.1079,53.7186 553,83 C570.8974,95.5098 577.3668,121.5492 579.6972,137.819 " fill="none" id="ConfigurationAdminImpl-ManagedService" style="stroke: #A80036; stroke-width: 1.0;"/><polygon fill="#A80036" points="580.3394,142.9284,583.1858,133.4998,579.7158,137.9674,575.2482,134.4975,580.3394,142.9284" style="stroke: #A80036; stroke-width: 1.0;"/><text fill="#000000" font-family="sans-serif" font-size="13" lengthAdjust="spacingAndGlyphs" textLength="65" x="359" y="71.0669">sends info</text><polygon fill="#000000" points="427,65.0664,433,68.0664,427,71.0664,427,65.0664" style="stroke: #000000; stroke-width: 1.0;"/><!--
@startuml
skinparam componentStyle uml2

package "OSGI Services" as OSGi {
[ConfigurationAdminImpl] -down- ConfigurationAdmin
[LogServiceImpl] -left- ConfigurationListener
[LogServiceImpl] -down- LogService
[ConfigurationAdminImpl] -right-> ConfigurationListener : sends info >
}

package "Simple Bundle" as SimpleBundle {
[HelloWorldApp] -left-> LogService : "sends log messages"
[HelloWorldApp] -up- ManagedService
}

package "GoGo Shell" {
[GoGoShell] -up-> ConfigurationAdmin
}

[ConfigurationAdminImpl] -right-> ManagedService : "> sends info"


@enduml

PlantUML version 1.2019.00(Sun Jan 13 16:46:42 CET 2019)
(EPL source distribution)
Java Runtime: Java(TM) SE Runtime Environment
JVM: Java HotSpot(TM) 64-Bit Server VM
Java Version: 1.8.0_201-b09
Operating System: Linux
OS Version: 5.1.20-300.fc30.x86_64
Default Encoding: UTF-8
Language: de
Country: DE
--></g></svg>