<?xml version="1.0" encoding="UTF-8" standalone="no"?><svg xmlns="http://www.w3.org/2000/svg" xmlns:xlink="http://www.w3.org/1999/xlink" contentScriptType="application/ecmascript" contentStyleType="text/css" height="377px" preserveAspectRatio="none" style="width:714px;height:377px;" version="1.1" viewBox="0 0 714 377" width="714px" zoomAndPan="magnify"><defs><filter height="300%" id="fptll7x4mdazc" width="300%" x="-1" y="-1"><feGaussianBlur result="blurOut" stdDeviation="2.0"/><feColorMatrix in="blurOut" result="blurOut2" type="matrix" values="0 0 0 0 0 0 0 0 0 0 0 0 0 0 0 0 0 0 .4 0"/><feOffset dx="4.0" dy="4.0" in="blurOut2" result="blurOut3"/><feBlend in="SourceGraphic" in2="blurOut3" mode="normal"/></filter></defs><g><rect fill="#FFFFFF" filter="url(#fptll7x4mdazc)" height="308.5234" style="stroke: #A80036; stroke-width: 1.0;" width="10" x="69" y="48.2969"/><rect fill="#FFFFFF" filter="url(#fptll7x4mdazc)" height="308.5234" style="stroke: #A80036; stroke-width: 1.0;" width="10" x="278" y="48.2969"/><rect fill="#FFFFFF" filter="url(#fptll7x4mdazc)" height="74.4297" style="stroke: #A80036; stroke-width: 1.0;" width="10" x="405" y="69.4297"/><rect fill="#FFFFFF" filter="url(#fptll7x4mdazc)" height="212.9609" style="stroke: #A80036; stroke-width: 1.0;" width="10" x="535" y="143.8594"/><rect fill="#FFFFFF" filter="url(#fptll7x4mdazc)" height="51.1328" style="stroke: #A80036; stroke-width: 1.0;" width="10" x="650.5" y="305.6875"/><rect fill="#FEFECE" filter="url(#fptll7x4mdazc)" height="30.2969" style="stroke: #A80036; stroke-width: 1.5;" width="116" x="480" y="77.4297"/><text fill="#000000" font-family="sans-serif" font-size="14" lengthAdjust="spacingAndGlyphs" textLength="102" x="487" y="97.4248">ServiceTracker</text><rect fill="#FEFECE" filter="url(#fptll7x4mdazc)" height="30.2969" style="stroke: #A80036; stroke-width: 1.5;" width="87" x="610" y="180.9922"/><text fill="#000000" font-family="sans-serif" font-size="14" lengthAdjust="spacingAndGlyphs" textLength="73" x="617" y="200.9873">HelloWorld</text><line style="stroke: #A80036; stroke-width: 1.0; stroke-dasharray: 5.0,5.0;" x1="74" x2="74" y1="38.2969" y2="365.8203"/><line style="stroke: #A80036; stroke-width: 1.0; stroke-dasharray: 5.0,5.0;" x1="282.5" x2="282.5" y1="38.2969" y2="365.8203"/><line style="stroke: #A80036; stroke-width: 1.0; stroke-dasharray: 5.0,5.0;" x1="409.5" x2="409.5" y1="38.2969" y2="365.8203"/><line style="stroke: #A80036; stroke-width: 1.0; stroke-dasharray: 5.0,5.0;" x1="540" x2="540" y1="110.0781" y2="365.8203"/><line style="stroke: #A80036; stroke-width: 1.0; stroke-dasharray: 5.0,5.0;" x1="655" x2="655" y1="213.6406" y2="365.8203"/><rect fill="#FEFECE" filter="url(#fptll7x4mdazc)" height="30.2969" style="stroke: #A80036; stroke-width: 1.5;" width="128" x="8" y="3"/><text fill="#000000" font-family="sans-serif" font-size="14" lengthAdjust="spacingAndGlyphs" textLength="114" x="15" y="22.9951">OSGi Framework</text><rect fill="#FEFECE" filter="url(#fptll7x4mdazc)" height="30.2969" style="stroke: #A80036; stroke-width: 1.5;" width="153" x="204.5" y="3"/><text fill="#000000" font-family="sans-serif" font-size="14" lengthAdjust="spacingAndGlyphs" textLength="139" x="211.5" y="22.9951">Configuration Admin</text><rect fill="#FEFECE" filter="url(#fptll7x4mdazc)" height="30.2969" style="stroke: #A80036; stroke-width: 1.5;" width="73" x="371.5" y="3"/><text fill="#000000" font-family="sans-serif" font-size="14" lengthAdjust="spacingAndGlyphs" textLength="59" x="378.5" y="22.9951">Activator</text><rect fill="#FFFFFF" filter="url(#fptll7x4mdazc)" height="308.5234" style="stroke: #A80036; stroke-width: 1.0;" width="10" x="69" y="48.2969"/><rect fill="#FFFFFF" filter="url(#fptll7x4mdazc)" height="308.5234" style="stroke: #A80036; stroke-width: 1.0;" width="10" x="278" y="48.2969"/><rect fill="#FFFFFF" filter="url(#fptll7x4mdazc)" height="74.4297" style="stroke: #A80036; stroke-width: 1.0;" width="10" x="405" y="69.4297"/><rect fill="#FFFFFF" filter="url(#fptll7x4mdazc)" height="212.9609" style="stroke: #A80036; stroke-width: 1.0;" width="10" x="535" y="143.8594"/><rect fill="#FFFFFF" filter="url(#fptll7x4mdazc)" height="51.1328" style="stroke: #A80036; stroke-width: 1.0;" width="10" x="650.5" y="305.6875"/><polygon fill="#A80036" points="393,65.4297,403,69.4297,393,73.4297,397,69.4297" style="stroke: #A80036; stroke-width: 1.0;"/><line style="stroke: #A80036; stroke-width: 1.0;" x1="79" x2="399" y1="69.4297" y2="69.4297"/><text fill="#000000" font-family="sans-serif" font-size="13" lengthAdjust="spacingAndGlyphs" textLength="30" x="86" y="64.3638">start</text><polygon fill="#A80036" points="468,94.5625,478,98.5625,468,102.5625,472,98.5625" style="stroke: #A80036; stroke-width: 1.0;"/><line style="stroke: #A80036; stroke-width: 1.0;" x1="415" x2="474" y1="98.5625" y2="98.5625"/><text fill="#000000" font-family="sans-serif" font-size="13" lengthAdjust="spacingAndGlyphs" textLength="41" x="422" y="93.4966">create</text><rect fill="#FEFECE" filter="url(#fptll7x4mdazc)" height="30.2969" style="stroke: #A80036; stroke-width: 1.5;" width="116" x="480" y="77.4297"/><text fill="#000000" font-family="sans-serif" font-size="14" lengthAdjust="spacingAndGlyphs" textLength="102" x="487" y="97.4248">ServiceTracker</text><polygon fill="#A80036" points="523,139.8594,533,143.8594,523,147.8594,527,143.8594" style="stroke: #A80036; stroke-width: 1.0;"/><line style="stroke: #A80036; stroke-width: 1.0;" x1="410" x2="529" y1="143.8594" y2="143.8594"/><text fill="#000000" font-family="sans-serif" font-size="13" lengthAdjust="spacingAndGlyphs" textLength="32" x="417" y="138.7935">open</text><polygon fill="#A80036" points="523,168.9922,533,172.9922,523,176.9922,527,172.9922" style="stroke: #A80036; stroke-width: 1.0;"/><line style="stroke: #A80036; stroke-width: 1.0;" x1="79" x2="529" y1="172.9922" y2="172.9922"/><text fill="#000000" font-family="sans-serif" font-size="13" lengthAdjust="spacingAndGlyphs" textLength="151" x="86" y="167.9263">addService(LogService)</text><polygon fill="#A80036" points="598,198.125,608,202.125,598,206.125,602,202.125" style="stroke: #A80036; stroke-width: 1.0;"/><line style="stroke: #A80036; stroke-width: 1.0;" x1="545" x2="604" y1="202.125" y2="202.125"/><text fill="#000000" font-family="sans-serif" font-size="13" lengthAdjust="spacingAndGlyphs" textLength="41" x="552" y="197.0591">create</text><rect fill="#FEFECE" filter="url(#fptll7x4mdazc)" height="30.2969" style="stroke: #A80036; stroke-width: 1.5;" width="87" x="610" y="180.9922"/><text fill="#000000" font-family="sans-serif" font-size="14" lengthAdjust="spacingAndGlyphs" textLength="73" x="617" y="200.9873">HelloWorld</text><polygon fill="#A80036" points="90,243.4219,80,247.4219,90,251.4219,86,247.4219" style="stroke: #A80036; stroke-width: 1.0;"/><line style="stroke: #A80036; stroke-width: 1.0;" x1="84" x2="654.5" y1="247.4219" y2="247.4219"/><text fill="#000000" font-family="sans-serif" font-size="13" lengthAdjust="spacingAndGlyphs" textLength="178" x="96" y="242.356">register as ManagedService</text><polygon fill="#A80036" points="266,272.5547,276,276.5547,266,280.5547,270,276.5547" style="stroke: #A80036; stroke-width: 1.0;"/><line style="stroke: #A80036; stroke-width: 1.0;" x1="79" x2="272" y1="276.5547" y2="276.5547"/><text fill="#000000" font-family="sans-serif" font-size="13" lengthAdjust="spacingAndGlyphs" textLength="175" x="86" y="271.4888">ManagedService registered</text><polygon fill="#A80036" points="638.5,301.6875,648.5,305.6875,638.5,309.6875,642.5,305.6875" style="stroke: #A80036; stroke-width: 1.0;"/><line style="stroke: #A80036; stroke-width: 1.0;" x1="288" x2="644.5" y1="305.6875" y2="305.6875"/><text fill="#000000" font-family="sans-serif" font-size="13" lengthAdjust="spacingAndGlyphs" textLength="45" x="295" y="300.6216">update</text><line style="stroke: #A80036; stroke-width: 1.0;" x1="660.5" x2="702.5" y1="334.8203" y2="334.8203"/><line style="stroke: #A80036; stroke-width: 1.0;" x1="702.5" x2="702.5" y1="334.8203" y2="347.8203"/><line style="stroke: #A80036; stroke-width: 1.0;" x1="661.5" x2="702.5" y1="347.8203" y2="347.8203"/><polygon fill="#A80036" points="671.5,343.8203,661.5,347.8203,671.5,351.8203,667.5,347.8203" style="stroke: #A80036; stroke-width: 1.0;"/><text fill="#000000" font-family="sans-serif" font-size="13" lengthAdjust="spacingAndGlyphs" textLength="30" x="667.5" y="329.7544">start</text><!--
@startuml
hide footbox

activate "OSGi Framework"
activate "Configuration Admin"
"OSGi Framework" -> Activator: start
activate Activator
Activator -> ServiceTracker ** : create
Activator -> ServiceTracker: open
deactivate Activator
activate ServiceTracker
"OSGi Framework" -> ServiceTracker: addService(LogService)
ServiceTracker -> HelloWorld ** : create
HelloWorld -> "OSGi Framework": register as ManagedService
"OSGi Framework" -> "Configuration Admin" : ManagedService registered
"Configuration Admin" -> HelloWorld: update
activate HelloWorld
HelloWorld -> HelloWorld: start

@enduml

PlantUML version 1.2019.00(Sun Jan 13 16:46:42 CET 2019)
(EPL source distribution)
Java Runtime: Java(TM) SE Runtime Environment
JVM: Java HotSpot(TM) 64-Bit Server VM
Java Version: 1.8.0_201-b09
Operating System: Linux
OS Version: 5.1.20-300.fc30.x86_64
Default Encoding: UTF-8
Language: de
Country: DE
--></g></svg>