<?xml version="1.0" encoding="UTF-8" standalone="no"?><svg xmlns="http://www.w3.org/2000/svg" xmlns:xlink="http://www.w3.org/1999/xlink" contentScriptType="application/ecmascript" contentStyleType="text/css" height="418px" preserveAspectRatio="none" style="width:609px;height:418px;" version="1.1" viewBox="0 0 609 418" width="609px" zoomAndPan="magnify"><defs><filter height="300%" id="f2wg48zm8wy38" width="300%" x="-1" y="-1"><feGaussianBlur result="blurOut" stdDeviation="2.0"/><feColorMatrix in="blurOut" result="blurOut2" type="matrix" values="0 0 0 0 0 0 0 0 0 0 0 0 0 0 0 0 0 0 .4 0"/><feOffset dx="4.0" dy="4.0" in="blurOut2" result="blurOut3"/><feBlend in="SourceGraphic" in2="blurOut3" mode="normal"/></filter></defs><g><!--cluster OSGI Services--><polygon fill="#FFFFFF" filter="url(#f2wg48zm8wy38)" points="14,16,131,16,138,38.2969,545,38.2969,545,278,14,278,14,16" style="stroke: #000000; stroke-width: 1.5;"/><line style="stroke: #000000; stroke-width: 1.5;" x1="14" x2="138" y1="38.2969" y2="38.2969"/><text fill="#000000" font-family="sans-serif" font-size="14" font-weight="bold" lengthAdjust="spacingAndGlyphs" textLength="111" x="18" y="30.9951">OSGI Services</text><!--cluster Simple Bundle--><polygon fill="#FFFFFF" filter="url(#f2wg48zm8wy38)" points="387,325,504,325,511,347.2969,543,347.2969,543,406,387,406,387,325" style="stroke: #000000; stroke-width: 1.5;"/><line style="stroke: #000000; stroke-width: 1.5;" x1="387" x2="511" y1="347.2969" y2="347.2969"/><text fill="#000000" font-family="sans-serif" font-size="14" font-weight="bold" lengthAdjust="spacingAndGlyphs" textLength="111" x="391" y="339.9951">Simple Bundle</text><!--cluster GoGo Shell--><polygon fill="#FFFFFF" filter="url(#f2wg48zm8wy38)" points="59,325,152,325,159,347.2969,189,347.2969,189,406,59,406,59,325" style="stroke: #000000; stroke-width: 1.5;"/><line style="stroke: #000000; stroke-width: 1.5;" x1="59" x2="159" y1="347.2969" y2="347.2969"/><text fill="#000000" font-family="sans-serif" font-size="14" font-weight="bold" lengthAdjust="spacingAndGlyphs" textLength="87" x="63" y="339.9951">GoGo Shell</text><!--entity LogServiceImpl--><rect fill="#FEFECE" filter="url(#f2wg48zm8wy38)" height="46.2969" style="stroke: #A80036; stroke-width: 1.5;" width="143" x="393.5" y="43"/><rect fill="#FEFECE" height="10" style="stroke: #A80036; stroke-width: 1.5;" width="15" x="516.5" y="48"/><rect fill="#FEFECE" height="2" style="stroke: #A80036; stroke-width: 1.5;" width="4" x="514.5" y="50"/><rect fill="#FEFECE" height="2" style="stroke: #A80036; stroke-width: 1.5;" width="4" x="514.5" y="54"/><text fill="#000000" font-family="sans-serif" font-size="14" lengthAdjust="spacingAndGlyphs" textLength="103" x="408.5" y="75.9951">LogServiceImpl</text><!--entity ConfigurationListener--><ellipse cx="349" cy="66" fill="#FEFECE" filter="url(#f2wg48zm8wy38)" rx="8" ry="8" style="stroke: #A80036; stroke-width: 2.0;"/><text fill="#000000" font-family="sans-serif" font-size="14" lengthAdjust="spacingAndGlyphs" textLength="147" x="275.5" y="95.9951">ConfigurationListener</text><!--entity LogService--><ellipse cx="465" cy="241" fill="#FEFECE" filter="url(#f2wg48zm8wy38)" rx="8" ry="8" style="stroke: #A80036; stroke-width: 2.0;"/><text fill="#000000" font-family="sans-serif" font-size="14" lengthAdjust="spacingAndGlyphs" textLength="75" x="427.5" y="270.9951">LogService</text><!--entity ConfigurationAdminImpl--><rect fill="#FEFECE" filter="url(#f2wg48zm8wy38)" height="46.2969" style="stroke: #A80036; stroke-width: 1.5;" width="203" x="22.5" y="43"/><rect fill="#FEFECE" height="10" style="stroke: #A80036; stroke-width: 1.5;" width="15" x="205.5" y="48"/><rect fill="#FEFECE" height="2" style="stroke: #A80036; stroke-width: 1.5;" width="4" x="203.5" y="50"/><rect fill="#FEFECE" height="2" style="stroke: #A80036; stroke-width: 1.5;" width="4" x="203.5" y="54"/><text fill="#000000" font-family="sans-serif" font-size="14" lengthAdjust="spacingAndGlyphs" textLength="163" x="37.5" y="75.9951">ConfigurationAdminImpl</text><!--entity ConfigurationAdmin--><ellipse cx="124" cy="241" fill="#FEFECE" filter="url(#f2wg48zm8wy38)" rx="8" ry="8" style="stroke: #A80036; stroke-width: 2.0;"/><text fill="#000000" font-family="sans-serif" font-size="14" lengthAdjust="spacingAndGlyphs" textLength="135" x="56.5" y="270.9951">ConfigurationAdmin</text><!--entity HelloWorldApp--><rect fill="#FEFECE" filter="url(#f2wg48zm8wy38)" height="46.2969" style="stroke: #A80036; stroke-width: 1.5;" width="140" x="395" y="352"/><rect fill="#FEFECE" height="10" style="stroke: #A80036; stroke-width: 1.5;" width="15" x="515" y="357"/><rect fill="#FEFECE" height="2" style="stroke: #A80036; stroke-width: 1.5;" width="4" x="513" y="359"/><rect fill="#FEFECE" height="2" style="stroke: #A80036; stroke-width: 1.5;" width="4" x="513" y="363"/><text fill="#000000" font-family="sans-serif" font-size="14" lengthAdjust="spacingAndGlyphs" textLength="100" x="410" y="384.9951">HelloWorldApp</text><!--entity GoGoShell--><rect fill="#FEFECE" filter="url(#f2wg48zm8wy38)" height="46.2969" style="stroke: #A80036; stroke-width: 1.5;" width="113" x="67.5" y="352"/><rect fill="#FEFECE" height="10" style="stroke: #A80036; stroke-width: 1.5;" width="15" x="160.5" y="357"/><rect fill="#FEFECE" height="2" style="stroke: #A80036; stroke-width: 1.5;" width="4" x="158.5" y="359"/><rect fill="#FEFECE" height="2" style="stroke: #A80036; stroke-width: 1.5;" width="4" x="158.5" y="363"/><text fill="#000000" font-family="sans-serif" font-size="14" lengthAdjust="spacingAndGlyphs" textLength="73" x="82.5" y="384.9951">GoGoShell</text><!--link ConfigurationListener to LogServiceImpl--><path d="M358.0625,66 C369.7588,66 381.4551,66 393.1514,66 " fill="none" id="ConfigurationListener-LogServiceImpl" style="stroke: #A80036; stroke-width: 1.0;"/><!--link LogServiceImpl to LogService--><path d="M465,89.2386 C465,128.2883 465,205.3943 465,231.8434 " fill="none" id="LogServiceImpl-LogService" style="stroke: #A80036; stroke-width: 1.0;"/><!--link ConfigurationAdminImpl to ConfigurationListener--><path d="M225.6386,66 C268.1532,66 312.7563,66 334.8557,66 " fill="none" id="ConfigurationAdminImpl-ConfigurationListener" style="stroke: #A80036; stroke-width: 1.0;"/><polygon fill="#A80036" points="339.9744,66,330.9744,62,334.9744,66,330.9744,70,339.9744,66" style="stroke: #A80036; stroke-width: 1.0;"/><text fill="#000000" font-family="sans-serif" font-size="13" lengthAdjust="spacingAndGlyphs" textLength="65" x="243.75" y="59.0669">sends info</text><polygon fill="#000000" points="311.75,53.0664,317.75,56.0664,311.75,59.0664,311.75,53.0664" style="stroke: #000000; stroke-width: 1.0;"/><!--link ConfigurationAdminImpl to ConfigurationAdmin--><path d="M124,89.2386 C124,128.2883 124,205.3943 124,231.8434 " fill="none" id="ConfigurationAdminImpl-ConfigurationAdmin" style="stroke: #A80036; stroke-width: 1.0;"/><!--link LogService to HelloWorldApp--><path d="M465,255.3095 C465,278.4118 465,324.1366 465,351.899 " fill="none" id="LogService-HelloWorldApp" style="stroke: #A80036; stroke-width: 1.0;"/><polygon fill="#A80036" points="465,250.2104,461,259.2104,465,255.2104,469,259.2104,465,250.2104" style="stroke: #A80036; stroke-width: 1.0;"/><text fill="#000000" font-family="sans-serif" font-size="13" lengthAdjust="spacingAndGlyphs" textLength="131" x="466" y="313.0669">sends log messages</text><!--link ConfigurationAdmin to GoGoShell--><path d="M124,255.3095 C124,278.4118 124,324.1366 124,351.899 " fill="none" id="ConfigurationAdmin-GoGoShell" style="stroke: #A80036; stroke-width: 1.0;"/><polygon fill="#A80036" points="124,250.2104,120,259.2104,124,255.2104,128,259.2104,124,250.2104" style="stroke: #A80036; stroke-width: 1.0;"/><!--
@startuml
skinparam componentStyle uml2

package "OSGI Services" {
[LogServiceImpl] -left- ConfigurationListener
[LogServiceImpl] -down- LogService
[ConfigurationAdminImpl] -right-> ConfigurationListener : sends info >
[ConfigurationAdminImpl] -down- ConfigurationAdmin
}
package "Simple Bundle" {
[HelloWorldApp] -up-> LogService : "sends log messages"
}

package "GoGo Shell" {
[GoGoShell] -up-> ConfigurationAdmin
}

@enduml

PlantUML version 1.2019.00(Sun Jan 13 16:46:42 CET 2019)
(EPL source distribution)
Java Runtime: Java(TM) SE Runtime Environment
JVM: Java HotSpot(TM) 64-Bit Server VM
Java Version: 1.8.0_201-b09
Operating System: Linux
OS Version: 5.1.20-300.fc30.x86_64
Default Encoding: UTF-8
Language: de
Country: DE
--></g></svg>